<mxfile host="app.diagrams.net" modified="2021-07-09T23:44:14.836Z" agent="5.0 (Windows NT 10.0; Win64; x64) AppleWebKit/537.36 (KHTML, like Gecko) Chrome/91.0.4472.124 Safari/537.36" etag="nE7cW1H4otre6_Acok1l" version="14.7.3" type="github">
  <diagram id="eNRF3LWQ_0u4cWcNQopz" name="Page-1">
    <mxGraphModel dx="723" dy="402" grid="1" gridSize="10" guides="1" tooltips="1" connect="1" arrows="1" fold="1" page="1" pageScale="1" pageWidth="1169" pageHeight="1654" math="0" shadow="0">
      <root>
        <mxCell id="0" />
        <mxCell id="1" parent="0" />
        <mxCell id="Inb26DNKalNLSwVqsg3I-1" value="Inicio" style="rounded=1;whiteSpace=wrap;html=1;" vertex="1" parent="1">
          <mxGeometry x="274" y="40" width="120" height="60" as="geometry" />
        </mxCell>
        <mxCell id="Inb26DNKalNLSwVqsg3I-2" value="Input Tempo" style="shape=parallelogram;perimeter=parallelogramPerimeter;whiteSpace=wrap;html=1;fixedSize=1;" vertex="1" parent="1">
          <mxGeometry x="40" y="230" width="120" height="60" as="geometry" />
        </mxCell>
        <mxCell id="Inb26DNKalNLSwVqsg3I-3" value="Rede &lt;br&gt;Trifásica/Monofásica" style="shape=parallelogram;perimeter=parallelogramPerimeter;whiteSpace=wrap;html=1;fixedSize=1;" vertex="1" parent="1">
          <mxGeometry x="260" y="640" width="150" height="60" as="geometry" />
        </mxCell>
        <mxCell id="Inb26DNKalNLSwVqsg3I-4" value="Start/Stop" style="shape=parallelogram;perimeter=parallelogramPerimeter;whiteSpace=wrap;html=1;fixedSize=1;" vertex="1" parent="1">
          <mxGeometry x="274" y="390" width="120" height="60" as="geometry" />
        </mxCell>
        <mxCell id="Inb26DNKalNLSwVqsg3I-5" value="Habilita&amp;nbsp;&lt;br&gt;Funcionamento" style="shape=parallelogram;perimeter=parallelogramPerimeter;whiteSpace=wrap;html=1;fixedSize=1;" vertex="1" parent="1">
          <mxGeometry x="267" y="140" width="134" height="60" as="geometry" />
        </mxCell>
        <mxCell id="Inb26DNKalNLSwVqsg3I-6" value="Testa controle de&lt;br&gt;funcionamento" style="rhombus;whiteSpace=wrap;html=1;" vertex="1" parent="1">
          <mxGeometry x="240" y="240" width="188" height="100" as="geometry" />
        </mxCell>
        <mxCell id="Inb26DNKalNLSwVqsg3I-7" value="" style="endArrow=classic;html=1;exitX=0.5;exitY=1;exitDx=0;exitDy=0;entryX=0.5;entryY=0;entryDx=0;entryDy=0;" edge="1" parent="1" source="Inb26DNKalNLSwVqsg3I-1" target="Inb26DNKalNLSwVqsg3I-5">
          <mxGeometry width="50" height="50" relative="1" as="geometry">
            <mxPoint x="310" y="270" as="sourcePoint" />
            <mxPoint x="360" y="220" as="targetPoint" />
          </mxGeometry>
        </mxCell>
        <mxCell id="Inb26DNKalNLSwVqsg3I-8" value="" style="endArrow=classic;html=1;exitX=0.5;exitY=1;exitDx=0;exitDy=0;entryX=0.5;entryY=0;entryDx=0;entryDy=0;" edge="1" parent="1" source="Inb26DNKalNLSwVqsg3I-5" target="Inb26DNKalNLSwVqsg3I-6">
          <mxGeometry width="50" height="50" relative="1" as="geometry">
            <mxPoint x="310" y="270" as="sourcePoint" />
            <mxPoint x="360" y="220" as="targetPoint" />
          </mxGeometry>
        </mxCell>
        <mxCell id="Inb26DNKalNLSwVqsg3I-9" value="" style="endArrow=none;html=1;" edge="1" parent="1">
          <mxGeometry width="50" height="50" relative="1" as="geometry">
            <mxPoint x="430" y="290" as="sourcePoint" />
            <mxPoint x="470" y="290" as="targetPoint" />
          </mxGeometry>
        </mxCell>
        <mxCell id="Inb26DNKalNLSwVqsg3I-10" value="" style="endArrow=classic;html=1;" edge="1" parent="1">
          <mxGeometry width="50" height="50" relative="1" as="geometry">
            <mxPoint x="470" y="120" as="sourcePoint" />
            <mxPoint x="334" y="120" as="targetPoint" />
          </mxGeometry>
        </mxCell>
        <mxCell id="Inb26DNKalNLSwVqsg3I-11" value="" style="endArrow=none;html=1;" edge="1" parent="1">
          <mxGeometry width="50" height="50" relative="1" as="geometry">
            <mxPoint x="470" y="290" as="sourcePoint" />
            <mxPoint x="470" y="120" as="targetPoint" />
          </mxGeometry>
        </mxCell>
        <mxCell id="Inb26DNKalNLSwVqsg3I-12" value="off" style="text;html=1;strokeColor=none;fillColor=none;align=center;verticalAlign=middle;whiteSpace=wrap;rounded=0;" vertex="1" parent="1">
          <mxGeometry x="430" y="270" width="40" height="20" as="geometry" />
        </mxCell>
        <mxCell id="Inb26DNKalNLSwVqsg3I-13" value="" style="endArrow=classic;html=1;exitX=0.5;exitY=1;exitDx=0;exitDy=0;entryX=0.5;entryY=0;entryDx=0;entryDy=0;" edge="1" parent="1" source="Inb26DNKalNLSwVqsg3I-6" target="Inb26DNKalNLSwVqsg3I-4">
          <mxGeometry width="50" height="50" relative="1" as="geometry">
            <mxPoint x="310" y="320" as="sourcePoint" />
            <mxPoint x="360" y="270" as="targetPoint" />
          </mxGeometry>
        </mxCell>
        <mxCell id="Inb26DNKalNLSwVqsg3I-14" value="on" style="text;html=1;strokeColor=none;fillColor=none;align=center;verticalAlign=middle;whiteSpace=wrap;rounded=0;" vertex="1" parent="1">
          <mxGeometry x="334" y="350" width="40" height="20" as="geometry" />
        </mxCell>
        <mxCell id="Inb26DNKalNLSwVqsg3I-15" value="" style="endArrow=classic;html=1;exitX=0.5;exitY=1;exitDx=0;exitDy=0;" edge="1" parent="1" source="Inb26DNKalNLSwVqsg3I-4" target="Inb26DNKalNLSwVqsg3I-16">
          <mxGeometry width="50" height="50" relative="1" as="geometry">
            <mxPoint x="310" y="380" as="sourcePoint" />
            <mxPoint x="360" y="330" as="targetPoint" />
          </mxGeometry>
        </mxCell>
        <mxCell id="Inb26DNKalNLSwVqsg3I-16" value="Teste Start/Stop" style="rhombus;whiteSpace=wrap;html=1;" vertex="1" parent="1">
          <mxGeometry x="280" y="500" width="110" height="90" as="geometry" />
        </mxCell>
        <mxCell id="Inb26DNKalNLSwVqsg3I-17" value="" style="endArrow=classic;html=1;exitX=0.5;exitY=1;exitDx=0;exitDy=0;entryX=0.5;entryY=0;entryDx=0;entryDy=0;" edge="1" parent="1" source="Inb26DNKalNLSwVqsg3I-16" target="Inb26DNKalNLSwVqsg3I-3">
          <mxGeometry width="50" height="50" relative="1" as="geometry">
            <mxPoint x="160" y="620" as="sourcePoint" />
            <mxPoint x="335" y="640" as="targetPoint" />
          </mxGeometry>
        </mxCell>
        <mxCell id="Inb26DNKalNLSwVqsg3I-19" value="Testa Rede Elétrica" style="rhombus;whiteSpace=wrap;html=1;" vertex="1" parent="1">
          <mxGeometry x="240" y="740" width="190" height="100" as="geometry" />
        </mxCell>
        <mxCell id="Inb26DNKalNLSwVqsg3I-84" value="" style="endArrow=classic;html=1;exitX=1;exitY=0.5;exitDx=0;exitDy=0;entryX=0;entryY=0.5;entryDx=0;entryDy=0;" edge="1" parent="1" source="Inb26DNKalNLSwVqsg3I-19" target="Inb26DNKalNLSwVqsg3I-91">
          <mxGeometry width="50" height="50" relative="1" as="geometry">
            <mxPoint x="370" y="623" as="sourcePoint" />
            <mxPoint x="550" y="790" as="targetPoint" />
          </mxGeometry>
        </mxCell>
        <mxCell id="Inb26DNKalNLSwVqsg3I-85" value="" style="endArrow=none;html=1;exitX=0.5;exitY=1;exitDx=0;exitDy=0;" edge="1" parent="1" source="Inb26DNKalNLSwVqsg3I-19">
          <mxGeometry width="50" height="50" relative="1" as="geometry">
            <mxPoint x="370" y="623" as="sourcePoint" />
            <mxPoint x="335" y="883" as="targetPoint" />
          </mxGeometry>
        </mxCell>
        <mxCell id="Inb26DNKalNLSwVqsg3I-86" value="" style="endArrow=classic;html=1;" edge="1" parent="1">
          <mxGeometry width="50" height="50" relative="1" as="geometry">
            <mxPoint x="334" y="883" as="sourcePoint" />
            <mxPoint x="559" y="882" as="targetPoint" />
          </mxGeometry>
        </mxCell>
        <mxCell id="Inb26DNKalNLSwVqsg3I-87" value="Monofásica" style="text;html=1;strokeColor=none;fillColor=none;align=center;verticalAlign=middle;whiteSpace=wrap;rounded=0;" vertex="1" parent="1">
          <mxGeometry x="480" y="863" width="40" height="20" as="geometry" />
        </mxCell>
        <mxCell id="Inb26DNKalNLSwVqsg3I-88" value="Trifásica" style="text;html=1;strokeColor=none;fillColor=none;align=center;verticalAlign=middle;whiteSpace=wrap;rounded=0;" vertex="1" parent="1">
          <mxGeometry x="470" y="773" width="40" height="20" as="geometry" />
        </mxCell>
        <mxCell id="Inb26DNKalNLSwVqsg3I-89" value="" style="endArrow=classic;html=1;exitX=0.5;exitY=1;exitDx=0;exitDy=0;entryX=0.5;entryY=0;entryDx=0;entryDy=0;" edge="1" parent="1" source="Inb26DNKalNLSwVqsg3I-3" target="Inb26DNKalNLSwVqsg3I-19">
          <mxGeometry width="50" height="50" relative="1" as="geometry">
            <mxPoint x="500" y="893" as="sourcePoint" />
            <mxPoint x="335" y="733" as="targetPoint" />
          </mxGeometry>
        </mxCell>
        <mxCell id="Inb26DNKalNLSwVqsg3I-91" value="Habilitar interrupções&lt;br&gt;externas e timers&lt;br&gt;para as três fases" style="rounded=0;whiteSpace=wrap;html=1;" vertex="1" parent="1">
          <mxGeometry x="560" y="757" width="120" height="66" as="geometry" />
        </mxCell>
        <mxCell id="Inb26DNKalNLSwVqsg3I-92" value="Habilitar interrupções&lt;br&gt;externa e timer&lt;br&gt;para uma fase" style="rounded=0;whiteSpace=wrap;html=1;" vertex="1" parent="1">
          <mxGeometry x="560" y="853" width="120" height="66" as="geometry" />
        </mxCell>
        <mxCell id="Inb26DNKalNLSwVqsg3I-95" value="" style="endArrow=classic;html=1;" edge="1" parent="1">
          <mxGeometry width="50" height="50" relative="1" as="geometry">
            <mxPoint x="730" y="790" as="sourcePoint" />
            <mxPoint x="730" y="710" as="targetPoint" />
          </mxGeometry>
        </mxCell>
      </root>
    </mxGraphModel>
  </diagram>
</mxfile>
